<svg xmlns="http://www.w3.org/2000/svg" viewBox="0 0 512 512" width="100%" height="100%">
  <defs>
    <linearGradient id="fireGrad1" x1="0%" y1="100%" x2="100%" y2="0%">
      <stop offset="0%" stop-color="#DC2626" />
      <stop offset="40%" stop-color="#EA580C" />
      <stop offset="75%" stop-color="#F59E0B" />
      <stop offset="100%" stop-color="#FEF08A" />
    </linearGradient>
    <filter id="flameGlow" x="-20%" y="-20%" width="140%" height="140%">
      <feGaussianBlur stdDeviation="8" result="blur" />
      <feComposite in="SourceGraphic" in2="blur" operator="over" />
    </filter>
  </defs>

  <!-- Burning Ambient Halo -->
  <circle cx="256" cy="256" r="210" fill="none" stroke="#EA580C" stroke-width="3" opacity="0.5" filter="url(#flameGlow)" />

  <!-- Magma Core Ring -->
  <circle cx="256" cy="256" r="192" fill="none" stroke="url(#fireGrad1)" stroke-width="8" filter="url(#flameGlow)" />

  <!-- Inner Ember Ring -->
  <circle cx="256" cy="256" r="175" fill="none" stroke="#FDE047" stroke-width="3" opacity="0.9" />

  <!-- Swirling Flame Tendrils radiating out -->
  <g fill="url(#fireGrad1)" filter="url(#flameGlow)">
    <!-- Top Right Dragon Horn / Blazing Crescent -->
    <path d="M 230,68 C 280,30 350,50 380,100 C 370,80 340,70 300,85 C 330,60 270,55 230,68 Z" />
    <path d="M 370,110 C 430,140 460,200 455,260 C 445,220 420,180 380,160 C 410,180 395,130 370,110 Z" />

    <!-- Bottom Right Blazing Arc -->
    <path d="M 445,280 C 455,340 420,410 360,445 C 380,410 380,370 355,340 C 380,360 385,300 445,280 Z" />
    <path d="M 330,450 C 280,480 210,480 160,445 C 190,450 230,440 250,420 C 220,430 180,420 160,445 Z" />

    <!-- Bottom Left Flame -->
    <path d="M 140,435 C 80,400 50,340 55,270 C 65,310 90,340 130,360 C 100,340 115,390 140,435 Z" />

    <!-- Top Left Horn & Arc -->
    <path d="M 65,240 C 50,180 90,110 150,75 C 130,110 130,150 155,180 C 130,155 125,220 65,240 Z" />
    <path d="M 170,70 C 210,45 270,40 300,55 C 265,55 235,68 210,90 C 235,70 190,65 170,70 Z" />
  </g>

  <!-- Glowing Embers Particles -->
  <circle cx="210" cy="48" r="4.5" fill="#FEF08A" filter="url(#flameGlow)" />
  <circle cx="400" cy="85" r="5" fill="#FEF08A" filter="url(#flameGlow)" />
  <circle cx="468" cy="220" r="4" fill="#FDE047" filter="url(#flameGlow)" />
  <circle cx="420" cy="420" r="5.5" fill="#FEF08A" filter="url(#flameGlow)" />
  <circle cx="100" cy="440" r="4" fill="#FEF08A" filter="url(#flameGlow)" />
  <circle cx="45" cy="200" r="5" fill="#FDE047" filter="url(#flameGlow)" />
</svg>